# xmcd
# 
# Track frame offsets:
#     150
#     21197
#     46229
#     61811
#     81447
#     100709
#     122015
#     143723
#     161950
#     185424
#     199247
#     212948
#     236962
#     252204
# 
# Disc length: 3581
# 
# Revision: 1
# Processed by: cddbd v1.5.2PL0 Copyright (c) Steve Scherf et al.
# Submitted via: BonkEnc v1.0.15
# 
DISCID=ca0dfb0e
DTITLE=Zdrowa Woda - Piwo
DYEAR=1990
DGENRE=Blues
TTITLE0=Piwo
TTITLE1=Zapodzia³em spokoj swoj
TTITLE2=Most nad przepascia
TTITLE3=Stad do nieba
TTITLE4=Trele morele
TTITLE5=Szczesliwy czlowiek
TTITLE6=Nie badz kiep
TTITLE7=Drwal
TTITLE8=Balanga
TTITLE9=Mam
TTITLE10=W tym barze
TTITLE11=Radziejow song
TTITLE12=Zluda
TTITLE13=To rock'n'roll
EXTD=YEAR: 1990
EXTT0=
EXTT1=
EXTT2=
EXTT3=
EXTT4=
EXTT5=
EXTT6=
EXTT7=
EXTT8=
EXTT9=
EXTT10=
EXTT11=
EXTT12=
EXTT13=
PLAYORDER=
